<?xml version="1.0" standalone="no"?>
<!DOCTYPE svg PUBLIC "-//W3C//DTD SVG 20010904//EN"
 "http://www.w3.org/TR/2001/REC-SVG-20010904/DTD/svg10.dtd">
<svg version="1.0" xmlns="http://www.w3.org/2000/svg"
 width="260.000000pt" height="260.000000pt" viewBox="0 0 260.000000 260.000000"
 preserveAspectRatio="xMidYMid meet">
<metadata>
Created by potrace 1.11, written by Peter Selinger 2001-2013
</metadata>
<g transform="translate(0.000000,260.000000) scale(0.100000,-0.100000)"
fill="#000000" stroke="none">
<path d="M1238 1765 c-97 -35 -155 -89 -312 -295 -201 -264 -245 -305 -325
-302 -41 1 -58 16 -76 68 -12 35 -17 39 -50 41 l-37 1 5 -51 c8 -77 15 -104
42 -157 45 -90 129 -143 225 -142 92 1 179 43 264 129 21 21 106 125 189 231
156 201 210 257 262 271 33 9 85 -10 85 -32 0 -6 16 5 35 25 19 21 35 41 35
45 0 5 -17 33 -38 63 -52 77 -111 111 -199 115 -39 1 -84 -3 -105 -10z"/>
<path d="M670 1704 c-8 -2 -32 -5 -52 -9 -88 -14 -178 -176 -178 -320 0 -36 9
-43 50 -37 25 4 28 9 33 55 3 33 11 55 22 63 16 12 24 9 61 -26 36 -33 51 -40
84 -40 23 0 50 5 61 10 28 15 55 78 58 133 3 53 -28 131 -59 147 -31 17 -64
27 -80 24z"/>
<path d="M1810 1671 c-78 -24 -184 -109 -252 -201 -104 -139 -258 -332 -292
-364 -69 -65 -137 -84 -171 -46 -17 19 -18 19 -46 -17 -16 -20 -29 -38 -29
-41 0 -3 11 -24 24 -46 46 -79 110 -117 207 -124 77 -5 123 7 194 54 88 58
110 83 323 368 122 163 192 206 268 166 13 -7 29 -28 36 -46 12 -34 27 -43 64
-36 18 3 21 9 17 40 -16 127 -76 228 -165 273 -41 21 -139 32 -178 20z"/>
<path d="M2071 1235 c-16 -63 -32 -72 -70 -36 -67 63 -136 64 -178 2 -52 -76
-34 -191 37 -239 62 -42 162 -15 218 58 27 37 61 123 69 177 12 78 12 78 -29
79 -35 1 -37 -1 -47 -41z"/>
</g>
</svg>
